# xmcd
#
# Track frame offsets:
#	150
#	14154
#	25947
#	39383
#	51105
#	72121
#	89285
#	104000
#	115145
#	147939
#	160912
#	171641
#	183921
#	196374
#	214469
#
# Disc length: 3020 seconds
#
# Revision: 0
# Processed by: cddbd v1.5.1PL0 Copyright (c) Steve Scherf et al.
# Submitted via: dBpowerAMP V4.0
#
DISCID=de0bca0f
DTITLE=Henry Cooper - Slide Man
DYEAR=1999
DGENRE=Blues
TTITLE0=Keep Walkin'
TTITLE1=Wicked Wacky Blues
TTITLE2=Never Happy
TTITLE3=I Wonder Baby
TTITLE4=King Me
TTITLE5=Sun Goes Down at Midnight
TTITLE6=Love the Life You're Livin'
TTITLE7=Lunch With D
TTITLE8=After All
TTITLE9=Guitar Baby
TTITLE10=Henry's Hideaway
TTITLE11=Sittin' On It
TTITLE12=No Fears
TTITLE13=Heckbound Train
TTITLE14=Find My Kinda Woman
EXTD=
EXTT0=
EXTT1=
EXTT2=
EXTT3=
EXTT4=
EXTT5=
EXTT6=
EXTT7=
EXTT8=
EXTT9=
EXTT10=
EXTT11=
EXTT12=
EXTT13=
EXTT14=
PLAYORDER=
